<?xml version="1.0" encoding="UTF-8" standalone="no"?>
<!-- Generated by IcoMoon.io -->

<svg
   xmlns:dc="http://purl.org/dc/elements/1.1/"
   xmlns:cc="http://creativecommons.org/ns#"
   xmlns:rdf="http://www.w3.org/1999/02/22-rdf-syntax-ns#"
   xmlns:svg="http://www.w3.org/2000/svg"
   xmlns="http://www.w3.org/2000/svg"
   xmlns:sodipodi="http://sodipodi.sourceforge.net/DTD/sodipodi-0.dtd"
   xmlns:inkscape="http://www.inkscape.org/namespaces/inkscape"
   version="1.1"
   width="320"
   height="32"
   viewBox="0 0 320 32"
   id="svg2"
   inkscape:version="0.91 r13725"
   sodipodi:docname="guide_icon.svg">
  <metadata
     id="metadata37">
    <rdf:RDF>
      <cc:Work
         rdf:about="">
        <dc:format>image/svg+xml</dc:format>
        <dc:type
           rdf:resource="http://purl.org/dc/dcmitype/StillImage" />
      </cc:Work>
    </rdf:RDF>
  </metadata>
  <defs
     id="defs35" />
  <sodipodi:namedview
     pagecolor="#ffffff"
     bordercolor="#666666"
     borderopacity="1"
     objecttolerance="10"
     gridtolerance="10"
     guidetolerance="10"
     inkscape:pageopacity="0"
     inkscape:pageshadow="2"
     inkscape:window-width="1871"
     inkscape:window-height="1056"
     id="namedview33"
     showgrid="false"
     inkscape:zoom="0.921875"
     inkscape:cx="160"
     inkscape:cy="16"
     inkscape:window-x="1969"
     inkscape:window-y="24"
     inkscape:window-maximized="1"
     inkscape:current-layer="svg2" />
  <svg
     id="guideicon-cloud-download"
     width="32"
     height="32"
     viewBox="0 0 32 32"
     x="0"
     y="0"
     version="1.1"
     style="fill:#e6e6e6">
    <path
       fill="#444444"
       d="M21.714 16.571q0-0.25-0.161-0.411t-0.411-0.161h-4v-6.286q0-0.232-0.17-0.402t-0.402-0.17h-3.429q-0.232 0-0.402 0.17t-0.17 0.402v6.286h-4q-0.232 0-0.402 0.17t-0.17 0.402q0 0.25 0.161 0.411l6.286 6.286q0.161 0.161 0.411 0.161t0.411-0.161l6.268-6.268q0.179-0.214 0.179-0.429zM33.143 20.571q0 2.839-2.009 4.848t-4.848 2.009h-19.429q-3.304 0-5.652-2.348t-2.348-5.652q0-2.321 1.25-4.286t3.357-2.946q-0.036-0.536-0.036-0.768 0-3.786 2.679-6.464t6.464-2.679q2.786 0 5.098 1.554t3.366 4.125q1.268-1.107 2.964-1.107 1.893 0 3.232 1.339t1.339 3.232q0 1.357-0.732 2.464 2.321 0.554 3.813 2.42t1.491 4.259z"
       id="path5"
       style="fill:#e6e6e6" />
  </svg>
  <svg
     id="guideicon-code"
     width="32"
     height="32"
     viewBox="0 0 32 32"
     x="32"
     y="0"
     version="1.1"
     style="fill:#e6e6e6">
    <path
       fill="#444444"
       d="M9.875 24.982l-0.893 0.893q-0.179 0.179-0.411 0.179t-0.411-0.179l-8.321-8.321q-0.179-0.179-0.179-0.411t0.179-0.411l8.321-8.321q0.179-0.179 0.411-0.179t0.411 0.179l0.893 0.893q0.179 0.179 0.179 0.411t-0.179 0.411l-7.018 7.018 7.018 7.018q0.179 0.179 0.179 0.411t-0.179 0.411zM20.429 5.929l-6.661 23.054q-0.071 0.232-0.277 0.348t-0.42 0.045l-1.107-0.304q-0.232-0.071-0.348-0.277t-0.045-0.438l6.661-23.054q0.071-0.232 0.277-0.348t0.42-0.045l1.107 0.304q0.232 0.071 0.348 0.277t0.045 0.438zM32.161 17.554l-8.321 8.321q-0.179 0.179-0.411 0.179t-0.411-0.179l-0.893-0.893q-0.179-0.179-0.179-0.411t0.179-0.411l7.018-7.018-7.018-7.018q-0.179-0.179-0.179-0.411t0.179-0.411l0.893-0.893q0.179-0.179 0.411-0.179t0.411 0.179l8.321 8.321q0.179 0.179 0.179 0.411t-0.179 0.411z"
       id="path8"
       style="fill:#e6e6e6" />
  </svg>
  <svg
     id="guideicon-columns"
     width="32"
     height="32"
     viewBox="0 0 32 32"
     x="64"
     y="0"
     version="1.1"
     style="fill:#e6e6e6">
    <path
       fill="#444444"
       d="M4 27.429h10.857v-20.571h-11.429v20q0 0.232 0.17 0.402t0.402 0.17zM28.571 26.857v-20h-11.429v20.571h10.857q0.232 0 0.402-0.17t0.17-0.402zM30.857 5.143v21.714q0 1.179-0.839 2.018t-2.018 0.839h-24q-1.179 0-2.018-0.839t-0.839-2.018v-21.714q0-1.179 0.839-2.018t2.018-0.839h24q1.179 0 2.018 0.839t0.839 2.018z"
       id="path11"
       style="fill:#e6e6e6" />
  </svg>
  <svg
     id="guideicon-config"
     width="32"
     height="32"
     viewBox="0 0 32 32"
     x="96"
     y="0"
     version="1.1"
     style="fill:#e6e6e6">
    <path
       fill="#444444"
       d="M14.938 15.992c0-1.178-0.417-2.184-1.25-3.018s-1.839-1.25-3.018-1.25-2.184 0.417-3.018 1.25-1.25 1.839-1.25 3.018 0.417 2.184 1.25 3.018 1.839 1.25 3.018 1.25 2.184-0.417 3.018-1.25 1.25-1.839 1.25-3.018zM27.742 24.528c0-0.578-0.211-1.078-0.633-1.501s-0.923-0.634-1.501-0.634-1.078 0.211-1.501 0.634c-0.422 0.422-0.634 0.922-0.634 1.501 0 0.589 0.208 1.092 0.625 1.509s0.92 0.625 1.509 0.625c0.589 0 1.092-0.208 1.509-0.625s0.625-0.92 0.625-1.509zM27.742 7.456c0-0.578-0.211-1.078-0.633-1.5s-0.923-0.633-1.501-0.633-1.078 0.211-1.501 0.633c-0.422 0.422-0.634 0.923-0.634 1.5 0 0.589 0.208 1.092 0.625 1.509s0.92 0.625 1.509 0.625c0.589 0 1.092-0.208 1.509-0.625s0.625-0.92 0.625-1.509zM21.34 14.475v3.084c0 0.111-0.039 0.22-0.117 0.325s-0.167 0.164-0.267 0.175l-2.584 0.4c-0.122 0.389-0.3 0.811-0.533 1.267 0.378 0.534 0.878 1.173 1.5 1.917 0.078 0.111 0.117 0.222 0.117 0.333 0 0.133-0.039 0.239-0.117 0.317-0.256 0.333-0.714 0.831-1.375 1.492s-1.098 0.992-1.309 0.992c-0.122 0-0.239-0.039-0.35-0.117l-1.917-1.5c-0.411 0.211-0.839 0.383-1.284 0.517-0.122 1.2-0.25 2.062-0.383 2.584-0.078 0.267-0.245 0.4-0.5 0.4h-3.101c-0.122 0-0.233-0.042-0.333-0.125s-0.156-0.181-0.167-0.292l-0.383-2.551c-0.378-0.111-0.795-0.283-1.25-0.517l-1.967 1.484c-0.078 0.078-0.189 0.117-0.333 0.117-0.122 0-0.239-0.044-0.35-0.133-1.601-1.478-2.401-2.367-2.401-2.667 0-0.1 0.039-0.206 0.117-0.317 0.111-0.156 0.339-0.45 0.684-0.884s0.606-0.772 0.784-1.017c-0.256-0.489-0.45-0.945-0.584-1.367l-2.534-0.4c-0.111-0.011-0.206-0.064-0.283-0.158s-0.117-0.203-0.117-0.325v-3.084c0-0.111 0.039-0.22 0.117-0.325s0.167-0.164 0.267-0.175l2.584-0.4c0.122-0.389 0.3-0.811 0.533-1.267-0.378-0.534-0.878-1.173-1.5-1.917-0.078-0.122-0.117-0.233-0.117-0.333 0-0.133 0.039-0.245 0.117-0.333 0.245-0.333 0.7-0.828 1.367-1.484s1.106-0.984 1.317-0.984c0.122 0 0.239 0.039 0.35 0.117l1.917 1.5c0.378-0.2 0.806-0.378 1.284-0.533 0.122-1.2 0.25-2.056 0.383-2.567 0.078-0.267 0.245-0.4 0.5-0.4h3.101c0.122 0 0.233 0.042 0.333 0.125s0.156 0.181 0.167 0.292l0.383 2.551c0.378 0.111 0.795 0.283 1.25 0.517l1.967-1.484c0.089-0.078 0.2-0.117 0.333-0.117 0.122 0 0.239 0.045 0.35 0.133 1.601 1.478 2.401 2.367 2.401 2.667 0 0.1-0.039 0.206-0.117 0.317-0.133 0.178-0.367 0.478-0.7 0.9s-0.584 0.756-0.75 1c0.256 0.534 0.445 0.989 0.567 1.367l2.534 0.383c0.111 0.022 0.206 0.081 0.283 0.175s0.117 0.203 0.117 0.325zM32.010 23.36v2.334c0 0.178-0.828 0.35-2.484 0.517-0.133 0.3-0.3 0.589-0.5 0.867 0.567 1.256 0.85 2.023 0.85 2.301 0 0.044-0.022 0.083-0.067 0.117-1.356 0.789-2.045 1.184-2.067 1.184-0.089 0-0.345-0.261-0.767-0.784s-0.711-0.9-0.867-1.134c-0.222 0.022-0.389 0.033-0.5 0.033s-0.278-0.011-0.5-0.033c-0.156 0.233-0.445 0.611-0.867 1.134s-0.678 0.784-0.767 0.784c-0.022 0-0.711-0.395-2.067-1.184-0.044-0.033-0.067-0.072-0.067-0.117 0-0.278 0.283-1.045 0.85-2.301-0.2-0.278-0.367-0.567-0.5-0.867-1.656-0.167-2.484-0.339-2.484-0.517v-2.334c0-0.178 0.828-0.35 2.484-0.517 0.144-0.322 0.311-0.611 0.5-0.867-0.567-1.256-0.85-2.023-0.85-2.301 0-0.044 0.022-0.083 0.067-0.117 0.044-0.022 0.239-0.133 0.584-0.333s0.672-0.389 0.984-0.567 0.478-0.267 0.5-0.267c0.089 0 0.345 0.258 0.767 0.775s0.711 0.892 0.867 1.125c0.222-0.022 0.389-0.033 0.5-0.033s0.278 0.011 0.5 0.033c0.567-0.789 1.078-1.412 1.534-1.867l0.1-0.033c0.044 0 0.734 0.389 2.067 1.167 0.044 0.033 0.067 0.072 0.067 0.117 0 0.278-0.284 1.045-0.85 2.301 0.189 0.256 0.356 0.545 0.5 0.867 1.656 0.167 2.484 0.339 2.484 0.517zM32.010 6.289v2.334c0 0.178-0.828 0.35-2.484 0.517-0.133 0.3-0.3 0.589-0.5 0.867 0.567 1.256 0.85 2.023 0.85 2.301 0 0.044-0.022 0.083-0.067 0.117-1.356 0.789-2.045 1.184-2.067 1.184-0.089 0-0.345-0.261-0.767-0.784s-0.711-0.9-0.867-1.134c-0.222 0.022-0.389 0.033-0.5 0.033s-0.278-0.011-0.5-0.033c-0.156 0.233-0.445 0.611-0.867 1.134s-0.678 0.784-0.767 0.784c-0.022 0-0.711-0.395-2.067-1.184-0.044-0.033-0.067-0.072-0.067-0.117 0-0.278 0.283-1.045 0.85-2.301-0.2-0.278-0.367-0.567-0.5-0.867-1.656-0.167-2.484-0.339-2.484-0.517v-2.334c0-0.178 0.828-0.35 2.484-0.517 0.144-0.322 0.311-0.611 0.5-0.867-0.567-1.256-0.85-2.023-0.85-2.301 0-0.045 0.022-0.083 0.067-0.117 0.044-0.022 0.239-0.133 0.584-0.333s0.672-0.389 0.984-0.567c0.311-0.178 0.478-0.267 0.5-0.267 0.089 0 0.345 0.258 0.767 0.775s0.711 0.892 0.867 1.125c0.222-0.022 0.389-0.033 0.5-0.033s0.278 0.011 0.5 0.033c0.567-0.789 1.078-1.412 1.534-1.867l0.1-0.033c0.044 0 0.734 0.389 2.067 1.167 0.044 0.033 0.067 0.072 0.067 0.117 0 0.278-0.284 1.045-0.85 2.301 0.189 0.256 0.356 0.545 0.5 0.867 1.656 0.167 2.484 0.339 2.484 0.517z"
       id="path14"
       style="fill:#e6e6e6" />
  </svg>
  <svg
     id="guideicon-drag"
     width="32"
     height="32"
     viewBox="0 0 32 32"
     x="128"
     y="0"
     version="1.1"
     style="fill:#e6e6e6">
    <path
       fill="#444444"
       d="M29.798 32h-0.147v-1.468h0.147c0.405 0 0.734-0.329 0.734-0.734l1.468-0.017v0.017c0 1.214-0.988 2.202-2.202 2.202zM27.303 32h-2.349v-1.468h2.349v1.468zM22.605 32h-2.349v-1.468h2.349v1.468zM17.615 32h-2.349v-1.468h2.349v1.468zM12.917 32h-2.349v-1.468h2.349v1.468zM8.22 32h-2.349v-1.468h2.349v1.468zM3.523 32h-1.321c-0.601 0-1.183-0.25-1.597-0.686l1.065-1.010c0.14 0.147 0.329 0.228 0.532 0.228h1.321v1.468zM1.468 28.477h-1.468v-2.349h1.468v2.349zM32 27.303h-1.468v-2.349h1.468v2.349zM1.468 23.78h-1.468v-2.349h1.468v2.349zM32 22.605h-1.468v-2.349h1.468v2.349zM1.468 19.083h-1.468v-2.642h1.468v2.642zM32 17.908h-1.468v-2.349h1.468v2.349zM1.468 14.092h-1.468v-2.349h1.468v2.349zM32 12.917h-1.468v-2.349h1.468v2.349zM1.468 9.395h-1.468v-2.349h1.468v2.349zM32 8.22h-1.468v-2.349h1.468v2.349zM1.468 4.697h-1.468v-2.349h1.468v2.349zM32 3.523h-1.468v-1.321c0-0.191-0.073-0.371-0.204-0.508l1.058-1.017c0.396 0.412 0.614 0.954 0.614 1.525v1.321zM28.477 1.468h-2.349v-1.468h2.349v1.468zM23.78 1.468h-2.349v-1.468h2.349v1.468zM19.083 1.468h-2.349v-1.468h2.349v1.468zM14.092 1.468h-2.349v-1.468h2.349v1.468zM9.395 1.468h-2.349v-1.468h2.349v1.468zM4.697 1.468h-2.349v-1.468h2.349v1.468z"
       id="path17"
       style="fill:#e6e6e6" />
    <path
       fill="#444444"
       d="M23.339 15.853c0 0.139-0.051 0.26-0.153 0.361l-2.055 2.055c-0.102 0.102-0.222 0.153-0.361 0.153s-0.26-0.051-0.361-0.153-0.153-0.222-0.153-0.361v-1.028h-3.083v3.083h1.028c0.139 0 0.26 0.051 0.361 0.153s0.153 0.222 0.153 0.361-0.051 0.26-0.153 0.361l-2.055 2.055c-0.102 0.102-0.222 0.153-0.361 0.153s-0.26-0.051-0.361-0.153l-2.055-2.055c-0.102-0.102-0.153-0.222-0.153-0.361s0.051-0.26 0.153-0.361c0.102-0.102 0.222-0.153 0.361-0.153h1.028v-3.083h-3.083v1.028c0 0.139-0.051 0.26-0.153 0.361s-0.222 0.153-0.361 0.153-0.26-0.051-0.361-0.153l-2.055-2.055c-0.102-0.102-0.153-0.222-0.153-0.361s0.051-0.26 0.153-0.361l2.055-2.055c0.102-0.102 0.222-0.153 0.361-0.153s0.26 0.051 0.361 0.153 0.153 0.222 0.153 0.361v1.028h3.083v-3.083h-1.028c-0.139 0-0.26-0.051-0.361-0.153s-0.153-0.222-0.153-0.361 0.051-0.26 0.153-0.361l2.055-2.055c0.102-0.102 0.222-0.153 0.361-0.153s0.26 0.051 0.361 0.153l2.055 2.055c0.102 0.102 0.153 0.222 0.153 0.361s-0.051 0.26-0.153 0.361c-0.102 0.102-0.222 0.153-0.361 0.153h-1.028v3.083h3.083v-1.028c0-0.139 0.051-0.26 0.153-0.361s0.222-0.153 0.361-0.153 0.26 0.051 0.361 0.153l2.055 2.055c0.102 0.102 0.153 0.222 0.153 0.361z"
       id="path19"
       style="fill:#e6e6e6" />
  </svg>
  <svg
     id="guideicon-eye"
     width="32"
     height="32"
     viewBox="0 0 32 32"
     x="160"
     y="0"
     version="1.1"
     style="fill:#e6e6e6">
    <path
       fill="#444444"
       d="M29.714 17.143q-2.714-4.214-6.804-6.304 1.089 1.857 1.089 4.018 0 3.304-2.348 5.652t-5.652 2.348-5.652-2.348-2.348-5.652q0-2.161 1.089-4.018-4.089 2.089-6.804 6.304 2.375 3.661 5.955 5.83t7.759 2.17 7.759-2.17 5.955-5.83zM16.857 10.286q0-0.357-0.25-0.607t-0.607-0.25q-2.232 0-3.83 1.598t-1.598 3.83q0 0.357 0.25 0.607t0.607 0.25 0.607-0.25 0.25-0.607q0-1.536 1.089-2.625t2.625-1.089q0.357 0 0.607-0.25t0.25-0.607zM32 17.143q0 0.607-0.357 1.232-2.5 4.107-6.723 6.58t-8.92 2.473-8.92-2.482-6.723-6.571q-0.357-0.625-0.357-1.232t0.357-1.232q2.5-4.089 6.723-6.571t8.92-2.482 8.92 2.482 6.723 6.571q0.357 0.625 0.357 1.232z"
       id="path22"
       style="fill:#e6e6e6" />
  </svg>
  <svg
     id="guideicon-picture-o"
     width="32"
     height="32"
     viewBox="0 0 32 32"
     x="192"
     y="0"
     version="1.1"
     style="fill:#e6e6e6">
    <path
       fill="#444444"
       d="M10.286 10.286q0 1.429-1 2.429t-2.429 1-2.429-1-1-2.429 1-2.429 2.429-1 2.429 1 1 2.429zM28.571 17.143v8h-25.143v-3.429l5.714-5.714 2.857 2.857 9.143-9.143zM30.286 4.571h-28.571q-0.232 0-0.402 0.17t-0.17 0.402v21.714q0 0.232 0.17 0.402t0.402 0.17h28.571q0.232 0 0.402-0.17t0.17-0.402v-21.714q0-0.232-0.17-0.402t-0.402-0.17zM33.143 5.143v21.714q0 1.179-0.839 2.018t-2.018 0.839h-28.571q-1.179 0-2.018-0.839t-0.839-2.018v-21.714q0-1.179 0.839-2.018t2.018-0.839h28.571q1.179 0 2.018 0.839t0.839 2.018z"
       id="path25"
       style="fill:#e6e6e6" />
  </svg>
  <svg
     id="guideicon-run"
     width="32"
     height="32"
     viewBox="0 0 32 32"
     x="224"
     y="0"
     version="1.1"
     style="fill:#e6e6e6">
    <path
       fill="#444444"
       d="M26.857 8c0-0.476-0.167-0.881-0.5-1.214s-0.738-0.5-1.214-0.5-0.881 0.167-1.214 0.5-0.5 0.738-0.5 1.214 0.167 0.881 0.5 1.214 0.738 0.5 1.214 0.5 0.881-0.167 1.214-0.5 0.5-0.738 0.5-1.214zM30.857 2.857c0 2.964-0.449 5.527-1.348 7.687s-2.408 4.307-4.527 6.438c-0.964 0.952-2.125 2-3.482 3.143l-0.357 6.768c-0.024 0.19-0.119 0.345-0.286 0.464l-6.857 4c-0.083 0.048-0.179 0.071-0.286 0.071-0.143 0-0.28-0.054-0.411-0.161l-1.143-1.143c-0.155-0.167-0.202-0.357-0.143-0.571l1.518-4.929-5.018-5.018-4.929 1.518c-0.036 0.012-0.089 0.018-0.161 0.018-0.167 0-0.304-0.054-0.411-0.161l-1.143-1.143c-0.202-0.226-0.232-0.458-0.089-0.696l4-6.857c0.119-0.167 0.274-0.262 0.464-0.286l6.768-0.357c1.143-1.357 2.19-2.518 3.143-3.482 2.238-2.226 4.369-3.762 6.393-4.607s4.589-1.268 7.696-1.268c0.167 0 0.31 0.057 0.429 0.17s0.179 0.247 0.179 0.402z"
       id="path28"
       style="fill:#e6e6e6" />
  </svg>
  <svg
     id="guideicon-users"
     width="32"
     height="32"
     viewBox="0 0 32 32"
     x="256"
     y="0"
     version="1.1"
     style="fill:#e6e6e6">
    <path
       fill="#444444"
       d="M9.446 16q-2.893 0.089-4.732 2.286h-2.393q-1.464 0-2.464-0.723t-1-2.116q0-6.304 2.214-6.304 0.107 0 0.777 0.375t1.741 0.759 2.125 0.384q1.196 0 2.375-0.411-0.089 0.661-0.089 1.179 0 2.482 1.446 4.571zM28.571 27.375q0 2.143-1.304 3.384t-3.464 1.241h-15.607q-2.161 0-3.464-1.241t-1.304-3.384q0-0.946 0.063-1.848t0.25-1.946 0.473-1.938 0.768-1.741 1.107-1.446 1.527-0.955 1.991-0.357q0.179 0 0.768 0.384t1.304 0.857 1.911 0.857 2.411 0.384 2.411-0.384 1.911-0.857 1.304-0.857 0.768-0.384q1.089 0 1.991 0.357t1.527 0.955 1.107 1.446 0.768 1.741 0.473 1.938 0.25 1.946 0.063 1.848zM10.286 4.571q0 1.893-1.339 3.232t-3.232 1.339-3.232-1.339-1.339-3.232 1.339-3.232 3.232-1.339 3.232 1.339 1.339 3.232zM22.857 11.429q0 2.839-2.009 4.848t-4.848 2.009-4.848-2.009-2.009-4.848 2.009-4.848 4.848-2.009 4.848 2.009 2.009 4.848zM33.143 15.446q0 1.393-1 2.116t-2.464 0.723h-2.393q-1.839-2.196-4.732-2.286 1.446-2.089 1.446-4.571 0-0.518-0.089-1.179 1.179 0.411 2.375 0.411 1.054 0 2.125-0.384t1.741-0.759 0.777-0.375q2.214 0 2.214 6.304zM30.857 4.571q0 1.893-1.339 3.232t-3.232 1.339-3.232-1.339-1.339-3.232 1.339-3.232 3.232-1.339 3.232 1.339 1.339 3.232z"
       id="path31"
       style="fill:#e6e6e6" />
  </svg>
</svg>
