<svg width="960" height="960" viewBox="0 0 960 960" xmlns="http://www.w3.org/2000/svg"><path d="M960 358c-10.667-47.333-29.333-91.333-56-132l-112 26-10-19c-15.333-20-33.333-38.333-54-55l-20-10 26-112c-18-12.667-39.333-24.667-64-36-17.333-7.333-39.667-14-67-20l-61 95-23-2c-26-3.333-52-3.333-78 0l-22 2-61-95c-45.333 10-89.333 28.667-132 56l26 112-19 10c-20.667 16-39 34.333-55 55l-10 19-112-26c-14 20-26 41.333-36 64-8 19.333-14.667 42-20 68l95 61-2 22c-3.333 26-3.333 52 0 78l2 22-95 61c10 45.333 28.667 89.333 56 132l112-26 10 20c16 20 34.333 38.333 55 55l19 9-26 113c20 13.333 41.333 25 64 35 19.333 8 42 14.667 68 20l61-93h22c27.333 3.333 53.333 3 78-1h22l61 94c47.333-10.667 91.333-29.333 132-56l-26-112 20-10c18.667-15.333 37-33.333 55-54l9-20 113 26c12-18 23.667-39.333 35-64 7.333-17.333 14-39.667 20-67l-93-61v-23c3.333-26 3.333-52 0-78v-22l93-61zm-480-118c62.667 0 118.333 24.333 167 73s73 104.333 73 167-24.333 118.333-73 167-104.333 73-167 73-118.333-24.333-167-73-73-104.333-73-167 24.333-118.333 73-167 104.333-73 167-73z" fill="#9C6DC0"/></svg>
