<svg width="746" height="746" viewBox="0 0 746 746" xmlns="http://www.w3.org/2000/svg"><path d="M82.393 354.407l-81.928 37.691c.214 4.245.502 8.469.864 12.672 4.523 40.433 15.744 80.78 33.662 121.039.81 1.646 1.634 3.288 2.472 4.926l91.783-8.142c11.651 17.201 25.457 33.782 41.418 49.743 17.052 17.052 34.811 31.644 53.277 43.776l-8.585 92.627c41.88 20.03 88.045 32.409 138.494 37.139l39.781-85.581c39.441-2.783 76.506-13.827 111.194-33.133l72.654 51.433c38.286-26.254 72.09-60.044 101.41-101.37l-50.371-71.753c20.832-35.827 32.743-74.222 35.73-115.182l81.141-37.329c-3.594-46.284-15.955-92.454-37.084-138.509l-86.758 7.696c-12.412-19.26-27.483-37.755-45.213-55.485-17.051-17.051-34.81-31.643-53.276-43.776l7.884-85.065c-41.88-20.03-88.045-32.409-138.494-37.139l-36.177 77.828c-44.653 2.684-86.278 15.896-124.875 39.634l-65.767-46.558c-38.286 26.254-72.09 60.044-101.41 101.37l49.068 69.897c-18.52 34.818-28.819 72.002-30.895 111.55zm416.857-109.657c36.5 36.5 54.75 78.25 54.75 125.25s-18.25 88.75-54.75 125.25-78.25 54.75-125.25 54.75-88.75-18.25-125.25-54.75-54.75-78.25-54.75-125.25 18.25-88.75 54.75-125.25 78.25-54.75 125.25-54.75 88.75 18.25 125.25 54.75z" fill="#9F62D1"/></svg>
