<?xml version="1.0" encoding="utf-8"?>
<!-- Generator: Adobe Illustrator 17.0.2, SVG Export Plug-In . SVG Version: 6.00 Build 0)  -->
<!DOCTYPE svg PUBLIC "-//W3C//DTD SVG 1.1//EN" "http://www.w3.org/Graphics/SVG/1.1/DTD/svg11.dtd">
<svg version="1.1" id="Layer_1" xmlns="http://www.w3.org/2000/svg" xmlns:xlink="http://www.w3.org/1999/xlink" x="0px" y="0px"
	 width="1280px" height="800px" viewBox="0 0 1280 800" enable-background="new 0 0 1280 800" xml:space="preserve">
<path fill="none" d="M1133,262H835c-17.645,0-32,14.355-32,32v202c0,17.645,14.355,32,32,32h298c17.645,0,32-14.355,32-32V294
	C1165,276.355,1150.645,262,1133,262z"/>
<path fill="#E7DCF4" d="M94.998,302.358h20.35c2.276,0,4.114,0.571,5.516,1.706c1.4,1.139,2.449,2.584,3.152,4.333l53.174,132.74
	c1.224,2.977,2.34,6.216,3.347,9.716c1.007,3.503,1.992,7.135,2.955,10.897c0.786-3.762,1.641-7.395,2.56-10.897
	c0.919-3.499,1.99-6.739,3.216-9.716l52.914-132.74c0.611-1.487,1.66-2.866,3.15-4.135c1.487-1.268,3.325-1.904,5.516-1.904h20.481
	l-76.677,188.147h-22.977L94.998,302.358z"/>
<path fill="#E7DCF4" d="M318.926,315.751c0,2.277-0.459,4.398-1.378,6.367c-0.919,1.97-2.146,3.722-3.676,5.253
	c-1.532,1.532-3.306,2.736-5.319,3.61c-2.013,0.876-4.156,1.313-6.432,1.313c-2.278,0-4.398-0.437-6.368-1.313
	c-1.97-0.874-3.72-2.078-5.253-3.61c-1.532-1.531-2.735-3.282-3.609-5.253c-0.876-1.969-1.314-4.09-1.314-6.367
	c0-2.276,0.438-4.442,1.314-6.5c0.874-2.056,2.077-3.851,3.609-5.383c1.532-1.53,3.282-2.734,5.253-3.61
	c1.97-0.874,4.09-1.313,6.368-1.313c2.276,0,4.419,0.439,6.432,1.313c2.013,0.876,3.787,2.08,5.319,3.61
	c1.53,1.532,2.757,3.327,3.676,5.383C318.466,311.309,318.926,313.475,318.926,315.751z M313.675,357.503v133.002h-23.372V357.503
	H313.675z"/>
<path fill="#E7DCF4" d="M430.053,379.429c-1.051,1.925-2.671,2.888-4.859,2.888c-1.312,0-2.802-0.48-4.464-1.445
	c-1.663-0.962-3.697-2.034-6.105-3.216c-2.408-1.182-5.274-2.276-8.599-3.282c-3.327-1.005-7.266-1.51-11.815-1.51
	c-3.941,0-7.486,0.504-10.636,1.51c-3.152,1.007-5.842,2.386-8.076,4.135c-2.231,1.752-3.938,3.788-5.12,6.105
	c-1.182,2.321-1.772,4.838-1.772,7.55c0,3.414,0.985,6.259,2.953,8.534c1.97,2.277,4.573,4.246,7.813,5.909
	c3.238,1.664,6.913,3.131,11.029,4.398c4.114,1.27,8.336,2.626,12.67,4.07c4.332,1.445,8.554,3.043,12.67,4.793
	c4.114,1.751,7.789,3.938,11.029,6.565c3.238,2.625,5.842,5.842,7.811,9.65c1.97,3.808,2.955,8.382,2.955,13.72
	c0,6.128-1.096,11.796-3.282,17.003c-2.19,5.209-5.428,9.716-9.717,13.524c-4.289,3.807-9.542,6.806-15.756,8.993
	c-6.214,2.187-13.39,3.282-21.532,3.282c-9.279,0-17.681-1.51-25.208-4.529c-7.529-3.021-13.918-6.893-19.169-11.62l5.513-8.928
	c0.699-1.137,1.53-2.013,2.494-2.626c0.964-0.611,2.233-0.919,3.808-0.919s3.238,0.613,4.99,1.839
	c1.75,1.227,3.872,2.583,6.368,4.07c2.494,1.489,5.513,2.845,9.059,4.07c3.545,1.227,7.986,1.838,13.326,1.838
	c4.55,0,8.535-0.591,11.948-1.772c3.415-1.182,6.257-2.778,8.535-4.793c2.274-2.012,3.96-4.333,5.054-6.958
	c1.094-2.626,1.641-5.427,1.641-8.404c0-3.676-0.985-6.716-2.953-9.125c-1.97-2.406-4.575-4.464-7.813-6.171
	c-3.24-1.706-6.939-3.194-11.093-4.464c-4.159-1.268-8.405-2.603-12.736-4.005c-4.334-1.399-8.58-2.997-12.736-4.792
	c-4.159-1.793-7.858-4.047-11.095-6.761c-3.238-2.712-5.842-6.06-7.811-10.045c-1.97-3.981-2.955-8.817-2.955-14.508
	c0-5.075,1.051-9.956,3.152-14.639c2.101-4.681,5.163-8.797,9.191-12.342c4.024-3.544,8.971-6.367,14.835-8.468
	s12.561-3.152,20.09-3.152c8.751,0,16.609,1.379,23.567,4.136c6.96,2.758,12.976,6.544,18.053,11.357L430.053,379.429z"/>
<path fill="#E7DCF4" d="M480.083,357.503v84.817c0,10.066,2.319,17.857,6.958,23.371s11.64,8.271,21.006,8.271
	c6.828,0,13.262-1.619,19.301-4.857c6.039-3.238,11.597-7.747,16.675-13.524v-98.078h23.37v133.002h-13.916
	c-3.327,0-5.428-1.619-6.302-4.858l-1.84-14.31c-5.776,6.39-12.256,11.533-19.432,15.427c-7.178,3.894-15.405,5.842-24.682,5.842
	c-7.268,0-13.679-1.204-19.235-3.61c-5.56-2.406-10.221-5.798-13.984-10.175c-3.763-4.377-6.586-9.671-8.469-15.887
	c-1.883-6.213-2.823-13.085-2.823-20.613v-84.817H480.083z"/>
<path fill="#E7DCF4" d="M691.548,490.505h-10.373c-2.278,0-4.116-0.348-5.513-1.05c-1.402-0.7-2.321-2.187-2.759-4.464
	l-2.624-12.342c-3.503,3.151-6.917,5.974-10.243,8.469c-3.327,2.495-6.828,4.596-10.503,6.302
	c-3.676,1.707-7.595,2.999-11.751,3.873c-4.159,0.874-8.777,1.313-13.852,1.313c-5.165,0-10.001-0.727-14.508-2.172
	c-4.509-1.449-8.426-3.623-11.751-6.522c-3.327-2.899-5.973-6.567-7.943-11.002c-1.968-4.435-2.953-9.683-2.953-15.743
	c0-5.268,1.445-10.342,4.332-15.216c2.889-4.873,7.55-9.201,13.984-12.977c6.432-3.777,14.856-6.872,25.274-9.289
	c10.416-2.415,23.15-3.623,38.207-3.623v-10.438c0-10.393-2.212-18.252-6.631-23.582c-4.421-5.33-10.963-7.995-19.628-7.995
	c-5.691,0-10.484,0.722-14.378,2.167c-3.896,1.445-7.266,3.064-10.11,4.858c-2.844,1.795-5.295,3.413-7.351,4.857
	c-2.058,1.445-4.094,2.167-6.105,2.167c-1.577,0-2.955-0.415-4.137-1.248c-1.182-0.83-2.122-1.858-2.823-3.085l-4.201-7.485
	c7.353-7.089,15.273-12.385,23.765-15.886c8.488-3.5,17.899-5.252,28.229-5.252c7.437,0,14.049,1.227,19.825,3.676
	c5.776,2.452,10.636,5.866,14.574,10.241c3.938,4.378,6.913,9.673,8.928,15.886c2.011,6.216,3.02,13.044,3.02,20.483V490.505z
	 M630.89,476.194c4.112,0,7.877-0.415,11.29-1.247c3.415-0.831,6.631-2.013,9.651-3.545c3.02-1.53,5.909-3.391,8.665-5.58
	c2.759-2.187,5.449-4.682,8.076-7.485v-27.441c-10.766,0-19.914,0.684-27.441,2.048c-7.529,1.366-13.655,3.149-18.382,5.348
	c-4.727,2.201-8.163,4.799-10.307,7.791c-2.146,2.995-3.216,6.339-3.216,10.036c0,3.523,0.568,6.561,1.707,9.113
	c1.137,2.554,2.669,4.644,4.594,6.273c1.925,1.628,4.201,2.819,6.828,3.566C624.981,475.821,627.824,476.194,630.89,476.194z"/>
<path fill="#FFFFFF" d="M1177.86,379.429c-1.049,1.925-2.671,2.888-4.857,2.888c-1.312,0-2.802-0.48-4.464-1.445
	c-1.665-0.962-3.699-2.034-6.105-3.216c-2.408-1.182-5.274-2.276-8.599-3.282c-3.327-1.005-7.268-1.51-11.818-1.51
	c-3.938,0-7.484,0.504-10.636,1.51c-3.15,1.007-5.843,2.386-8.073,4.135c-2.233,1.752-3.938,3.788-5.12,6.105
	c-1.182,2.321-1.774,4.838-1.774,7.55c0,3.414,0.985,6.259,2.955,8.534c1.968,2.277,4.573,4.246,7.811,5.909
	c3.238,1.664,6.915,3.131,11.029,4.398c4.114,1.27,8.339,2.626,12.67,4.07c4.334,1.445,8.554,3.043,12.67,4.793
	c4.114,1.751,7.789,3.938,11.029,6.565c3.238,2.625,5.843,5.842,7.813,9.65c1.968,3.808,2.953,8.382,2.953,13.72
	c0,6.128-1.094,11.796-3.282,17.003c-2.188,5.209-5.428,9.716-9.715,13.524c-4.291,3.807-9.542,6.806-15.756,8.993
	c-6.216,2.187-13.392,3.282-21.532,3.282c-9.279,0-17.681-1.51-25.21-4.529c-7.529-3.021-13.916-6.893-19.169-11.62l5.516-8.928
	c0.699-1.137,1.53-2.013,2.494-2.626c0.962-0.611,2.231-0.919,3.808-0.919c1.575,0,3.238,0.613,4.988,1.839
	c1.75,1.227,3.874,2.583,6.368,4.07c2.496,1.489,5.516,2.845,9.061,4.07c3.543,1.227,7.986,1.838,13.326,1.838
	c4.55,0,8.533-0.591,11.948-1.772c3.413-1.182,6.257-2.778,8.533-4.793c2.276-2.012,3.96-4.333,5.056-6.958
	c1.092-2.626,1.641-5.427,1.641-8.404c0-3.676-0.985-6.716-2.955-9.125c-1.968-2.406-4.573-4.464-7.811-6.171
	c-3.24-1.706-6.939-3.194-11.095-4.464c-4.159-1.268-8.403-2.603-12.736-4.005c-4.332-1.399-8.578-2.997-12.734-4.792
	c-4.159-1.793-7.858-4.047-11.095-6.761c-3.24-2.712-5.843-6.06-7.813-10.045c-1.968-3.981-2.953-8.817-2.953-14.508
	c0-5.075,1.049-9.956,3.15-14.639c2.103-4.681,5.165-8.797,9.191-12.342c4.026-3.544,8.971-6.367,14.837-8.468
	c5.864-2.101,12.559-3.152,20.088-3.152c8.753,0,16.609,1.379,23.569,4.136c6.958,2.758,12.976,6.544,18.053,11.357L1177.86,379.429
	z"/>
<path fill="#FFFFFF" d="M943.941,416.306c0.761-6.958,0.768-14.015,0.021-20.976l-0.449-4.184l23.75-16.637
	c-1.451-5.572-3.296-11.074-5.506-16.408c-2.21-5.334-4.795-10.529-7.709-15.496l-28.558,5.029l-2.641-3.276
	c-4.394-5.45-9.389-10.435-14.847-14.817l-3.288-2.64l5.023-28.525c-10.003-5.873-20.709-10.308-31.933-13.228l-16.618,23.723
	l-4.193-0.458c-6.958-0.761-14.016-0.768-20.975-0.021l-4.184,0.448l-16.637-23.749c-5.575,1.451-11.076,3.297-16.409,5.505
	c-5.333,2.209-10.528,4.794-15.496,7.71l5.029,28.558l-3.276,2.641c-5.449,4.393-10.434,9.388-14.817,14.847l-2.641,3.289
	l-28.525-5.024c-5.872,10.002-10.306,20.708-13.226,31.933l23.722,16.618l-0.458,4.192c-0.761,6.958-0.768,14.015-0.021,20.976
	l0.449,4.184l-23.75,16.637c1.451,5.573,3.297,11.074,5.506,16.409c2.21,5.334,4.795,10.529,7.709,15.495l28.558-5.029l2.641,3.276
	c4.394,5.45,9.389,10.435,14.847,14.818l3.288,2.64l-5.023,28.525c10.003,5.873,20.709,10.308,31.932,13.227l16.619-23.723
	l4.193,0.459c6.956,0.761,14.013,0.767,20.975,0.021l4.184-0.449l16.638,23.75c5.572-1.451,11.073-3.296,16.408-5.506
	s10.531-4.795,15.496-7.709l-5.029-28.558l3.276-2.642c5.451-4.395,10.436-9.39,14.817-14.846l2.64-3.289l28.526,5.023
	c5.872-10,10.306-20.706,13.227-31.932l-23.722-16.618L943.941,416.306z M846.521,464.155c-32.159,0-58.322-26.163-58.322-58.321
	c0-32.159,26.163-58.322,58.322-58.322c32.158,0,58.321,26.163,58.321,58.322C904.842,437.992,878.679,464.155,846.521,464.155z"/>
<g>
	<path fill="#CCCCCC" d="M468.069,539.857c-1.61,0-3.046-0.363-4.307-1.089c-1.262-0.724-2.255-1.716-2.979-2.979v3.664h-4.712
		v-29.39h5.395v11.997c0.751-1.288,1.738-2.287,2.958-2.999c1.222-0.711,2.638-1.067,4.248-1.067c1.369,0,2.624,0.295,3.765,0.886
		c1.141,0.591,2.12,1.382,2.938,2.375c0.819,0.994,1.45,2.16,1.894,3.503c0.442,1.342,0.663,2.751,0.663,4.226
		c0,1.531-0.248,2.953-0.744,4.268c-0.498,1.316-1.188,2.462-2.074,3.443s-1.932,1.752-3.141,2.315
		C470.767,539.575,469.465,539.857,468.069,539.857z M466.58,535.266c0.859,0,1.644-0.167,2.354-0.503
		c0.712-0.336,1.33-0.785,1.853-1.348c0.523-0.564,0.925-1.222,1.207-1.973c0.282-0.751,0.424-1.558,0.424-2.417
		s-0.135-1.676-0.403-2.456c-0.268-0.778-0.65-1.463-1.148-2.054c-0.496-0.589-1.08-1.06-1.75-1.409
		c-0.672-0.348-1.409-0.523-2.214-0.523c-1.208,0-2.288,0.397-3.242,1.188c-0.952,0.791-1.684,1.765-2.194,2.92v5.032
		c0.187,0.537,0.462,1.019,0.825,1.448c0.363,0.43,0.771,0.8,1.229,1.109c0.456,0.309,0.952,0.55,1.488,0.724
		C465.546,535.18,466.069,535.266,466.58,535.266z"/>
	<path fill="#CCCCCC" d="M481.194,543.559c0.484,0.135,0.927,0.228,1.33,0.282c0.402,0.054,0.751,0.081,1.046,0.081
		c0.348,0,0.656-0.061,0.927-0.181c0.267-0.121,0.528-0.343,0.785-0.665c0.255-0.322,0.51-0.771,0.764-1.348
		c0.255-0.577,0.53-1.335,0.825-2.275l-8.374-21.097h5.556l5.758,16.427l5.071-16.427h5.073l-8.897,25.284
		c-0.564,1.61-1.463,2.852-2.697,3.725c-1.235,0.871-2.672,1.308-4.309,1.308c-0.94,0-1.892-0.149-2.859-0.442V543.559z"/>
	<path fill="#B3B3B3" d="M535.304,539.453v-18.922l-7.368,14.09h-3.019l-7.368-14.09v18.922h-5.556v-28.585h5.959l8.455,16.265
		l8.534-16.265h5.919v28.585H535.304z"/>
	<path fill="#B3B3B3" d="M552.052,539.857c-1.021,0-1.973-0.169-2.859-0.505c-0.886-0.334-1.651-0.805-2.295-1.409
		c-0.645-0.602-1.148-1.308-1.51-2.113c-0.361-0.805-0.543-1.691-0.543-2.658c0-0.992,0.223-1.912,0.665-2.758
		c0.442-0.846,1.06-1.563,1.851-2.153c0.792-0.591,1.738-1.053,2.839-1.389c1.1-0.336,2.309-0.503,3.623-0.503
		c0.94,0,1.858,0.081,2.758,0.241c0.899,0.16,1.698,0.39,2.396,0.683v-1.207c0-1.396-0.397-2.469-1.188-3.222
		c-0.792-0.751-1.966-1.127-3.522-1.127c-1.127,0-2.229,0.203-3.301,0.604c-1.075,0.403-2.175,0.994-3.303,1.772l-1.65-3.423
		c2.71-1.797,5.637-2.697,8.777-2.697c3.033,0,5.387,0.744,7.066,2.234c1.676,1.489,2.516,3.644,2.516,6.462v6.561
		c0,0.564,0.106,0.967,0.321,1.208c0.216,0.241,0.591,0.376,1.127,0.402v4.59c-0.51,0.106-0.986,0.181-1.429,0.221
		c-0.442,0.041-0.825,0.061-1.146,0.061c-1.021-0.027-1.799-0.262-2.336-0.704c-0.537-0.444-0.872-1.041-1.006-1.792l-0.122-1.168
		c-0.94,1.235-2.081,2.174-3.422,2.818C555.017,539.534,553.581,539.857,552.052,539.857z M553.581,535.911
		c0.913,0,1.779-0.162,2.597-0.484c0.818-0.321,1.455-0.751,1.912-1.288c0.591-0.456,0.886-0.967,0.886-1.531v-2.415
		c-0.645-0.241-1.343-0.435-2.094-0.584c-0.751-0.147-1.475-0.221-2.174-0.221c-1.396,0-2.536,0.316-3.422,0.947
		c-0.884,0.63-1.328,1.429-1.328,2.395c0,0.913,0.349,1.671,1.046,2.275C551.702,535.609,552.561,535.911,553.581,535.911z"/>
	<path fill="#B3B3B3" d="M578.26,539.857c-1.45,0-2.785-0.282-4.006-0.845c-1.22-0.564-2.273-1.342-3.159-2.336
		c-0.886-0.992-1.578-2.153-2.074-3.483c-0.496-1.328-0.744-2.758-0.744-4.287c0-1.531,0.235-2.953,0.704-4.268
		c0.469-1.315,1.121-2.469,1.953-3.463c0.832-0.992,1.826-1.77,2.98-2.334c1.153-0.564,2.415-0.845,3.784-0.845
		c1.531,0,2.92,0.376,4.167,1.127c1.249,0.751,2.221,1.732,2.92,2.938v-11.997h5.394v23.19c0,0.564,0.108,0.967,0.322,1.208
		c0.214,0.241,0.591,0.376,1.127,0.402v4.59c-1.019,0.187-1.878,0.282-2.575,0.282c-0.994-0.027-1.765-0.255-2.315-0.685
		c-0.55-0.429-0.893-1.033-1.028-1.811l-0.12-1.45c-0.78,1.343-1.826,2.356-3.141,3.039
		C581.133,539.514,579.737,539.857,578.26,539.857z M579.669,535.266c0.51,0,1.033-0.086,1.57-0.262
		c0.537-0.174,1.034-0.424,1.49-0.744c0.456-0.322,0.872-0.699,1.249-1.127c0.375-0.43,0.656-0.9,0.845-1.409v-5.032
		c-0.457-1.181-1.202-2.16-2.234-2.94c-1.035-0.778-2.115-1.168-3.242-1.168c-0.805,0-1.549,0.176-2.234,0.523
		c-0.684,0.349-1.267,0.827-1.752,1.429c-0.483,0.604-0.859,1.296-1.126,2.074c-0.27,0.778-0.403,1.585-0.403,2.415
		c0,0.886,0.147,1.704,0.442,2.457c0.295,0.751,0.705,1.407,1.229,1.971c0.523,0.564,1.141,1.008,1.851,1.33
		C578.066,535.106,578.838,535.266,579.669,535.266z"/>
	<path fill="#B3B3B3" d="M605.475,539.857c-1.691,0-3.22-0.29-4.589-0.866c-1.369-0.577-2.536-1.362-3.504-2.356
		c-0.965-0.992-1.711-2.147-2.234-3.463c-0.523-1.315-0.785-2.697-0.785-4.146c0-1.502,0.255-2.918,0.765-4.248
		c0.51-1.328,1.249-2.496,2.214-3.502c0.967-1.006,2.14-1.804,3.524-2.395c1.382-0.591,2.931-0.886,4.649-0.886
		c1.718,0,3.254,0.295,4.611,0.886c1.355,0.591,2.508,1.382,3.461,2.375c0.953,0.994,1.677,2.148,2.174,3.463
		c0.498,1.315,0.746,2.683,0.746,4.106c0,0.349-0.007,0.685-0.02,1.006c-0.014,0.322-0.047,0.591-0.101,0.807h-16.304
		c0.079,0.832,0.282,1.569,0.603,2.214c0.322,0.643,0.739,1.193,1.249,1.651c0.51,0.456,1.087,0.805,1.732,1.046
		c0.643,0.241,1.315,0.363,2.013,0.363c1.072,0,2.086-0.262,3.039-0.786c0.952-0.523,1.603-1.213,1.953-2.072l4.629,1.288
		c-0.778,1.612-2.02,2.933-3.725,3.966C609.869,539.34,607.838,539.857,605.475,539.857z M610.951,527.134
		c-0.135-1.583-0.719-2.852-1.752-3.804c-1.034-0.953-2.288-1.429-3.765-1.429c-0.724,0-1.402,0.127-2.032,0.381
		c-0.631,0.257-1.188,0.611-1.671,1.068c-0.484,0.456-0.879,1.006-1.188,1.651c-0.309,0.643-0.491,1.355-0.543,2.133H610.951z"/>
	<path fill="#B3B3B3" d="M619.806,515.418v-5.355h5.395v5.355H619.806z M619.806,539.453v-21.097h5.395v21.097H619.806z"/>
	<path fill="#B3B3B3" d="M642.554,523.028c-1.637,0.027-3.099,0.343-4.388,0.945c-1.288,0.604-2.214,1.51-2.778,2.719v12.762h-5.395
		v-21.097h4.953v4.509c0.724-1.448,1.671-2.616,2.837-3.502c1.168-0.886,2.396-1.328,3.684-1.328c0.295,0,0.516,0.007,0.665,0.02
		c0.147,0.013,0.289,0.034,0.422,0.059V523.028z"/>
	<path fill="#B3B3B3" d="M651.049,539.857c-1.021,0-1.973-0.169-2.859-0.505c-0.886-0.334-1.651-0.805-2.295-1.409
		c-0.645-0.602-1.148-1.308-1.51-2.113c-0.361-0.805-0.543-1.691-0.543-2.658c0-0.992,0.223-1.912,0.665-2.758
		c0.442-0.846,1.06-1.563,1.851-2.153c0.792-0.591,1.738-1.053,2.839-1.389c1.1-0.336,2.309-0.503,3.623-0.503
		c0.94,0,1.858,0.081,2.758,0.241c0.9,0.16,1.698,0.39,2.396,0.683v-1.207c0-1.396-0.397-2.469-1.188-3.222
		c-0.792-0.751-1.966-1.127-3.522-1.127c-1.127,0-2.229,0.203-3.301,0.604c-1.075,0.403-2.175,0.994-3.303,1.772l-1.651-3.423
		c2.71-1.797,5.637-2.697,8.777-2.697c3.033,0,5.387,0.744,7.066,2.234c1.676,1.489,2.516,3.644,2.516,6.462v6.561
		c0,0.564,0.106,0.967,0.321,1.208c0.216,0.241,0.591,0.376,1.127,0.402v4.59c-0.51,0.106-0.986,0.181-1.429,0.221
		c-0.442,0.041-0.825,0.061-1.146,0.061c-1.021-0.027-1.799-0.262-2.336-0.704c-0.537-0.444-0.872-1.041-1.006-1.792l-0.122-1.168
		c-0.94,1.235-2.081,2.174-3.422,2.818C654.014,539.534,652.578,539.857,651.049,539.857z M652.578,535.911
		c0.913,0,1.779-0.162,2.597-0.484c0.818-0.321,1.455-0.751,1.912-1.288c0.591-0.456,0.886-0.967,0.886-1.531v-2.415
		c-0.645-0.241-1.343-0.435-2.094-0.584c-0.751-0.147-1.475-0.221-2.174-0.221c-1.396,0-2.536,0.316-3.423,0.947
		c-0.884,0.63-1.328,1.429-1.328,2.395c0,0.913,0.349,1.671,1.046,2.275C650.7,535.609,651.559,535.911,652.578,535.911z"/>
	<path fill="#B3B3B3" d="M667.394,524.96c0-1.745,0.309-3.47,0.927-5.174c0.618-1.703,1.51-3.227,2.678-4.568
		c1.166-1.342,2.596-2.43,4.286-3.262c1.691-0.83,3.623-1.247,5.797-1.247c2.55,0,4.757,0.577,6.624,1.731
		c1.865,1.154,3.24,2.656,4.126,4.508l-4.268,2.94c-0.322-0.805-0.737-1.483-1.247-2.034c-0.511-0.55-1.067-0.986-1.671-1.308
		c-0.604-0.322-1.229-0.557-1.873-0.705c-0.643-0.147-1.261-0.221-1.851-0.221c-1.315,0-2.469,0.282-3.463,0.845
		c-0.992,0.564-1.818,1.296-2.476,2.194c-0.658,0.9-1.154,1.921-1.488,3.06c-0.336,1.143-0.505,2.275-0.505,3.402
		c0,1.262,0.196,2.476,0.584,3.644c0.39,1.168,0.94,2.194,1.651,3.08c0.712,0.886,1.564,1.598,2.557,2.135
		c0.992,0.537,2.081,0.805,3.262,0.805c0.616,0,1.247-0.081,1.892-0.241c0.645-0.162,1.267-0.417,1.872-0.766
		c0.604-0.348,1.161-0.798,1.671-1.348s0.927-1.213,1.249-1.993l4.548,2.617c-0.429,1.073-1.053,2.02-1.872,2.839
		c-0.819,0.818-1.752,1.509-2.798,2.072s-2.147,0.994-3.301,1.289c-1.154,0.295-2.295,0.442-3.422,0.442
		c-1.986,0-3.804-0.429-5.454-1.288s-3.075-1.98-4.268-3.362c-1.195-1.382-2.121-2.953-2.778-4.71
		C667.723,528.577,667.394,526.786,667.394,524.96z"/>
	<path fill="#B3B3B3" d="M695.455,510.064h5.394v22.385c0,1.637,0.737,2.456,2.214,2.456c0.295,0,0.638-0.052,1.028-0.16
		c0.388-0.108,0.758-0.228,1.107-0.363l0.724,4.309c-0.724,0.349-1.57,0.618-2.536,0.805c-0.965,0.187-1.838,0.282-2.617,0.282
		c-1.689,0-2.999-0.449-3.924-1.348c-0.927-0.9-1.389-2.18-1.389-3.846V510.064z"/>
	<path fill="#B3B3B3" d="M717.879,539.857c-1.718,0-3.26-0.297-4.629-0.886c-1.369-0.591-2.53-1.389-3.483-2.396
		c-0.952-1.006-1.684-2.167-2.194-3.482c-0.51-1.315-0.764-2.698-0.764-4.146c0-1.477,0.255-2.872,0.764-4.187
		c0.51-1.315,1.242-2.477,2.194-3.483c0.953-1.006,2.115-1.804,3.483-2.395c1.369-0.591,2.911-0.886,4.629-0.886
		c1.718,0,3.255,0.295,4.611,0.886c1.355,0.591,2.51,1.389,3.463,2.395c0.952,1.006,1.683,2.169,2.194,3.483
		c0.51,1.315,0.764,2.71,0.764,4.187c0,1.448-0.255,2.832-0.764,4.146c-0.511,1.315-1.235,2.476-2.175,3.482
		c-0.938,1.008-2.093,1.806-3.461,2.396C721.141,539.56,719.597,539.857,717.879,539.857z M712.364,528.946
		c0,0.938,0.142,1.791,0.424,2.555c0.282,0.766,0.67,1.429,1.166,1.993c0.498,0.564,1.08,1.001,1.752,1.31
		c0.67,0.309,1.396,0.462,2.174,0.462c0.778,0,1.504-0.154,2.175-0.462c0.67-0.309,1.254-0.746,1.75-1.31s0.886-1.234,1.168-2.012
		c0.282-0.78,0.424-1.637,0.424-2.577c0-0.913-0.142-1.758-0.424-2.536c-0.282-0.778-0.672-1.45-1.168-2.013
		c-0.496-0.564-1.08-0.999-1.75-1.308c-0.672-0.309-1.397-0.464-2.175-0.464c-0.778,0-1.504,0.162-2.174,0.484
		c-0.672,0.321-1.254,0.764-1.752,1.328c-0.496,0.564-0.884,1.235-1.166,2.013C712.505,527.188,712.364,528.033,712.364,528.946z"/>
	<path fill="#B3B3B3" d="M738.893,539.857c-2.174,0-3.824-0.699-4.951-2.094c-1.127-1.396-1.691-3.463-1.691-6.2v-13.206h5.395
		v12.038c0,3.249,1.168,4.872,3.502,4.872c1.073,0,2.099-0.316,3.08-0.947c0.981-0.63,1.779-1.59,2.396-2.877v-13.086h5.394v14.897
		c0,0.564,0.108,0.967,0.322,1.208c0.214,0.241,0.591,0.376,1.127,0.402v4.59c-0.564,0.106-1.06,0.181-1.489,0.221
		c-0.43,0.041-0.807,0.061-1.127,0.061c-0.967,0-1.726-0.221-2.275-0.665c-0.55-0.442-0.893-1.053-1.028-1.831l-0.12-1.732
		c-0.967,1.45-2.182,2.536-3.644,3.26C742.322,539.494,740.692,539.857,738.893,539.857z"/>
	<path fill="#B3B3B3" d="M766.231,539.857c-1.45,0-2.785-0.282-4.006-0.845c-1.22-0.564-2.273-1.342-3.159-2.336
		c-0.886-0.992-1.578-2.153-2.074-3.483c-0.496-1.328-0.744-2.758-0.744-4.287c0-1.531,0.235-2.953,0.704-4.268
		s1.121-2.469,1.953-3.463c0.832-0.992,1.826-1.77,2.98-2.334c1.153-0.564,2.415-0.845,3.784-0.845c1.531,0,2.92,0.376,4.167,1.127
		c1.249,0.751,2.221,1.732,2.92,2.938v-11.997h5.394v23.19c0,0.564,0.108,0.967,0.322,1.208c0.214,0.241,0.591,0.376,1.127,0.402
		v4.59c-1.019,0.187-1.878,0.282-2.575,0.282c-0.994-0.027-1.765-0.255-2.315-0.685c-0.55-0.429-0.893-1.033-1.028-1.811l-0.12-1.45
		c-0.78,1.343-1.826,2.356-3.141,3.039C769.103,539.514,767.707,539.857,766.231,539.857z M767.64,535.266
		c0.51,0,1.033-0.086,1.569-0.262c0.537-0.174,1.035-0.424,1.49-0.744c0.456-0.322,0.872-0.699,1.249-1.127
		c0.375-0.43,0.656-0.9,0.846-1.409v-5.032c-0.457-1.181-1.202-2.16-2.234-2.94c-1.034-0.778-2.115-1.168-3.242-1.168
		c-0.805,0-1.549,0.176-2.234,0.523c-0.683,0.349-1.267,0.827-1.752,1.429c-0.483,0.604-0.859,1.296-1.126,2.074
		c-0.27,0.778-0.403,1.585-0.403,2.415c0,0.886,0.147,1.704,0.442,2.457c0.295,0.751,0.705,1.407,1.229,1.971
		c0.523,0.564,1.141,1.008,1.851,1.33C766.037,535.106,766.808,535.266,767.64,535.266z"/>
</g>
<path fill="#FFFFFF" d="M956,528h-40.467c-4.942,2.786-10.075,5.308-15.311,7.478c-5.988,2.479-12.194,4.561-18.447,6.19
	l-10.487,2.731L859.801,528H835c-0.579,0-1.154-0.018-1.726-0.048l-11.413,16.291C826.05,545.381,830.452,546,835,546h121V528z"/>
<g>
	<path fill="#FFFFFF" d="M1183,412.713v-16.77c-2.983,1.542-6.37,2.374-9.997,2.374c-2.664,0-5.341-0.501-8.003-1.483v6.354
		c1.619,0.635,3.228,1.282,4.812,1.956C1174.601,407.183,1179.028,409.725,1183,412.713z"/>
	<path fill="#FFFFFF" d="M1165,294v48.633c2.031,0.599,4.022,1.265,5.951,2.03c4.268,1.691,8.288,3.721,12.049,6.061V294
		c0-27.614-22.386-50-50-50H835c-22.226,0-41.054,14.506-47.56,34.564c1.782-0.827,3.573-1.628,5.38-2.377
		c5.985-2.479,12.192-4.561,18.448-6.19l3.772-0.982C820.517,264.631,827.455,262,835,262h298C1150.645,262,1165,276.355,1165,294z"
		/>
	<path fill="#FFFFFF" d="M1182.973,492.292c-5.31,4.71-11.663,8.498-18.891,11.304C1160.662,517.585,1148.027,528,1133,528h-122v18
		h122c27.614,0,50-22.386,50-50v-3.734C1182.991,492.275,1182.982,492.284,1182.973,492.292z"/>
</g>
<path fill="#E7DCF4" d="M730.471,474.237c-3.148-5.365-5.956-11.003-8.339-16.758c-2.382-5.75-4.386-11.72-5.954-17.741
	l-2.621-10.086L734,415.334V396.33l-20.386-14.279l2.621-10.083c3.151-12.115,7.967-23.732,14.305-34.529L734,331.55V297h-23v194h23
	v-10.76L730.471,474.237z"/>
<path fill="#FFFFFF" d="M1085.464,393.871c-2.363-8.489-5.733-15.601-10.11-21.335c-4.376-5.731-9.672-10.064-15.886-12.998
	c-6.216-2.931-13.129-4.398-20.746-4.398c-9.542,0-17.966,2.101-25.274,6.302c-7.308,4.201-13.809,9.761-19.498,16.675
	l-1.968-15.507c-0.876-3.238-2.977-4.609-6.302-4.609h-12.062c1.894,4,3.529,9.631,4.841,14.672l2.743,9.96L972,389.038v34.578
	l9.147,6.491l-2.564,10.084c-1.721,6.615-4.584,13.074-6.584,19.34V556h23v-79.281c5,4.989,9.672,8.842,15.495,11.553
	c5.819,2.712,12.876,4.07,21.106,4.07c8.928,0,16.973-1.773,24.109-5.317c7.133-3.545,13.157-8.404,18.061-14.574
	c4.9-6.171,8.67-13.478,11.296-21.927c2.626-8.447,3.941-17.571,3.941-27.375C1089.008,412.122,1087.828,402.362,1085.464,393.871z
	 M1054.874,460.964c-6.654,8.842-16.151,13.261-28.492,13.261c-6.302,0-12.08-1.182-17.2-3.545S999,464.246,995,458.469v-64.335
	c5-6.388,10.155-11.334,15.888-14.836c5.731-3.5,12.44-5.253,20.055-5.253c5.338,0,10.126,0.92,14.328,2.758
	c4.201,1.838,7.755,4.749,10.644,8.73c2.889,3.984,5.103,9.082,6.635,15.296c1.53,6.217,2.299,13.654,2.299,22.321
	C1064.849,439.519,1061.524,452.124,1054.874,460.964z"/>
</svg>
