<svg viewBox="0 0 2400 800" xmlns="http://www.w3.org/2000/svg" fill-rule="evenodd" clip-rule="evenodd"><path d="M1940.5 670.48c-4.24 -11.42 -16.96 -17.25 -28.38 -13l-126.2 46.9c-11.4 4.26 -17.24 16.98 -13 28.4 4.26 11.43 16.98 17.25 28.4 13l126.2 -46.9c11.4 -4.25 17.24 -16.98 13 -28.4zM1527.77 584.2c-52.5 -.37 -57.93 42.95 -57.98 63.96 -.06 21 10.87 58.3 57.63 59.95 46.78 1.65 59.6 -39.44 59.66 -60.44 .05 -21 -6.8 -63.06 -59.3 -63.45zm-173.88 4.07l-1.7 24.52c-16.86 -7.4 -47.47 -10.45 -47.4 6.77 .1 23.07 53.58 1.62 55.87 49.1 .74 15.35 -14.34 40.32 -42.32 39.44 -14.7 -.46 -43.14 -4.74 -43.14 -4.74l.8 -24.53s53.05 17.7 52.48 -6.78c-.55 -23.98 -55.84 -4.5 -55.87 -54.17 0 -28.7 40.83 -38.98 81.28 -29.6zm98.2 -.4l-1.68 24.52c-16.87 -7.4 -47.48 -10.46 -47.4 6.76 .08 23.08 53.57 1.62 55.86 49.1 .74 15.35 -14.34 40.32 -42.32 39.44 -14.7 -.47 -43.14 -4.75 -43.14 -4.75l.8 -24.53s53.06 17.7 52.5 -6.77c-.56 -24 -55.85 -4.5 -55.88 -54.18 -.02 -28.7 40.8 -38.98 81.27 -29.6zm-462.22 -.47v118.52h28.78V660.2h20.32c8.57 1.8 16.44 34.87 20.32 45.7h33.86c-13.5 -21.8 -14.55 -55.28 -30.48 -59.24 28.66 -1.92 36.38 -54.4 -10.15 -59.26h-62.64zm-116.82 0v118.52h93.12v-23.7H905.2v-23.7h57.57v-23.7H905.2V611.1h59.26v-23.7h-91.42zm235.34 0v118.52h32.17V587.4h-32.17zm419.93 19.1c15.7 0 27.17 17.2 27.17 39.66 0 22.47 -11.9 39.18 -27.6 39.18 -15.7 0 -26.72 -16.7 -26.72 -39.18 0 -22.47 11.45 -39.67 27.16 -39.67zm-270.93 -15.72v23.7c-30.8 -13.9 -67 -8.55 -67.72 28.8 -.87 44.7 38.9 47.3 67.72 35.55l1.7 23.7c-47.75 15.4 -101.53 -.46 -101.6 -55.87 -.06 -60.1 58.68 -72.07 99.9 -55.88zm682.42 13.67c-4.26 -11.42 -16.98 -17.25 -28.4 -13l-126.2 46.9c-11.4 4.26 -17.24 16.98 -13 28.4 4.26 11.43 16.98 17.25 28.4 13l126.2 -46.9c11.4 -4.25 17.24 -16.97 13 -28.4zM1604.8 587.4v118.52h28.07l.4 -78.45 43.15 78.44h36.38l-.02 -118.5h-27.08l-.5 77.6 -41.42 -77.6h-38.98zm-586.18 22v28.8h22c19.4 -.22 17.17 -28.56 0 -28.8h-22zm921.45 -71.97c-4.26 -11.43 -16.98 -17.25 -28.4 -13l-126.2 46.9c-11.4 4.25 -17.24 16.98 -13 28.4 4.26 11.42 16.98 17.25 28.4 13l126.2 -46.9c11.4 -4.26 17.24 -16.98 13 -28.4zM1813.02 259.15c-3.25 -11.7 -7.9 -21.48 -13.92 -29.37 -6 -7.9 -13.3 -13.86 -21.86 -17.9 -8.55 -4.03 -18.07 -6.05 -28.56 -6.05 -13.13 0 -24.73 2.9 -34.8 8.67 -10.05 5.8 -19 13.44 -26.83 23l-2.7 -21.35c-1.22 -4.46 -4.1 -6.35 -8.7 -6.35h-8c1.33 2.75 2.5 7.57 3.6 11.67l3.77 13.7 -18.2 12.65v39.9l18.1 12.78 -3.52 13.88c-3.46 13.3 -9.07 26.13 -14.57 38.32v143.4h31.66V373.2c6.87 6.88 13.35 12.12 21.33 15.97 8 3.72 17.76 5.65 29.05 5.6 12.3 0 23.36 -2.44 33.2 -7.32 9.8 -4.88 18.1 -11.57 24.85 -20.06 6.75 -8.5 11.94 -18.56 15.55 -30.2 3.62 -11.62 5.43 -24.2 5.43 -37.68 0 -15.28 -1.65 -28.63 -4.82 -40.37h-.05zm-178.23 192.9h-166.58c-5.88 0 -11.53 -.98 -16.82 -2.78l-6.64 -1.73c-12.53 -3.26 -24.68 -7.8 -36.25 -13.58 11.88 20.72 34.12 34.62 59.72 34.62h166.58v-16.52zm75.72 16.53v-16.52h167.95c26.7 0 48.76 -20.1 51.9 -45.94 6.26 -3.22 11.9 -7.06 16.9 -11.48h.03v-.03 5.14c0 38.02 -30.8 68.84 -68.83 68.84h-167.95zm235.94 -151.32c-2.7 -5.24 -6.3 -9.67 -10.76 -13.28 -4.46 -3.62 -9.52 -6.63 -15.18 -9.04 -5.67 -2.4 -11.47 -4.6 -17.44 -6.6 -5.96 -2 -11.78 -3.85 -17.44 -5.6 -5.67 -1.75 -10.73 -3.77 -15.2 -6.06 -4.44 -2.3 -8.03 -5 -10.74 -8.13 -2.7 -3.14 -4.07 -7.05 -4.07 -11.75 0 -3.74 .82 -7.2 2.44 -10.4 1.63 -3.2 3.98 -6 7.05 -8.4 3.07 -2.4 6.78 -4.3 11.12 -5.7 4.34 -1.38 9.22 -2.07 14.64 -2.07 6.26 0 11.7 .7 16.24 2.08 4.58 1.38 8.54 2.9 11.84 4.53 3.3 1.65 6.06 3.16 8.4 4.4 2.3 1.38 4.4 1.93 6.2 2 3 0 5.24 -1.34 6.68 -4l7.23 -11.74c-7 -6.63 -15.27 -11.84 -24.85 -15.64 -9.58 -3.8 -20.4 -5.7 -32.45 -5.7 -10.36 0 -19.58 1.45 -27.65 4.35 -8.08 2.9 -14.9 6.78 -20.43 11.7 -5.55 4.9 -9.76 10.55 -12.66 17 1.83 4.4 3.44 9.08 4.82 14.07 3.3 11.84 5.23 25.2 5.64 39.8 .03 0 0 0 0 .05 4.46 3.7 9.5 6.88 15.28 9.3 5.73 2.48 11.57 4.7 17.5 6.6 5.95 1.94 11.83 3.73 17.47 5.53 5.72 1.8 10.88 3.85 15.28 6.14 4.46 2.33 8 5.22 10.74 8.53 2.7 3.3 4.13 7.43 4.13 12.56 0 4.1 -.75 7.94 -2.26 11.56 -1.5 3.6 -3.83 6.8 -6.96 9.64 -3.13 2.77 -7.05 4.97 -11.75 6.6 -4.7 1.62 -10.18 2.43 -16.44 2.43 -7.37 0 -13.48 -.84 -18.36 -2.53 -4.88 -1.68 -9.04 -3.55 -12.47 -5.6 -3.44 -2.05 -6.36 -3.9 -8.77 -5.6 -2.4 -1.7 -4.7 -2.53 -6.87 -2.53s-3.92 .42 -5.24 1.26c-1.34 .84 -2.48 2.05 -3.44 3.62l-7.6 12.3c7.24 6.46 15.97 11.83 26.44 15.96 10.36 4.14 21.88 6.2 34.7 6.24 11.2 0 21.07 -1.5 29.63 -4.52 8.55 -3 15.78 -7.14 21.7 -12.38 5.9 -5.24 10.35 -11.44 13.37 -18.6 3 -7.18 4.5 -15 4.5 -23.42 .02 -7.37 -1.28 -13.7 -4.03 -18.96zm-1035.72 -78c-1.45 2.66 -3.68 3.98 -6.7 3.98 -1.8 0 -3.84 -.66 -6.13 -2 -2.28 -1.3 -5.08 -2.8 -8.4 -4.42 -3.3 -1.62 -7.26 -3.13 -11.83 -4.5 -4.58 -1.4 -10 -2.1 -16.27 -2.1 -5.43 0 -10.3 .7 -14.64 2.1 -4.34 1.37 -8.04 3.27 -11.12 5.68 -3.07 2.4 -5.42 5.2 -7.05 8.4 -1.64 3.2 -2.45 6.66 -2.45 10.4 0 4.67 1.38 8.66 4.13 11.74 2.7 3.16 6.33 5.78 10.74 8.12 4.46 2.34 9.5 4.27 15.14 6.06 5.67 1.8 11.43 3.57 17.5 5.6 5.95 1.93 11.83 4.13 17.47 6.6 5.66 2.5 10.74 5.38 15.14 9.05 4.46 3.57 8 7.98 10.74 13.28 2.72 5.23 4.14 11.56 4.14 18.86 0 8.45 -1.5 16.25 -4.52 23.42 -3 7.17 -7.47 13.37 -13.37 18.62 -5.9 5.24 -13.14 9.37 -21.7 12.4 -8.55 3 -18.43 4.5 -29.64 4.5 -12.76 0 -24.33 -2.07 -34.7 -6.23 -10.36 -4.15 -19.15 -9.48 -26.38 -16l7.6 -12.28c.95 -1.56 2.1 -2.77 3.42 -3.6 1.33 -.86 3.08 -1.28 5.25 -1.28 2.15 0 4.44 .83 6.87 2.48 2.4 1.65 5.37 3.58 8.8 5.6 3.44 2.07 7.58 3.86 12.54 5.6 4.9 1.66 11.02 2.48 18.32 2.48 6.26 0 11.75 -.8 16.45 -2.44 4.7 -1.62 8.6 -3.82 11.75 -6.6 3.13 -2.76 5.45 -5.96 6.95 -9.57 1.5 -3.63 2.26 -7.48 2.26 -11.58 0 -5.06 -1.35 -9.25 -4.06 -12.56 -2.72 -3.32 -6.3 -6.15 -10.76 -8.5 -4.45 -2.35 -9.54 -4.4 -15.26 -6.15 -5.73 -1.73 -11.57 -3.57 -17.53 -5.5 -5.96 -1.93 -11.8 -4.13 -17.53 -6.6 -5.72 -2.46 -10.8 -5.57 -15.27 -9.3 -4.46 -3.74 -8.04 -8.35 -10.75 -13.83 -2.72 -5.48 -4.07 -12.14 -4.07 -19.98 0 -7 1.45 -13.7 4.34 -20.16 2.9 -6.44 7.1 -12.1 12.65 -17 5.54 -4.87 12.35 -8.75 20.42 -11.65 8.07 -2.9 17.3 -4.35 27.65 -4.35 12.05 0 22.85 1.93 32.5 5.7 9.57 3.85 17.9 8.95 24.9 15.63l-7.5 11.9zm1036.56 155.4v-.02zm-627.57 -55.8c-3.28 -7.9 -6.04 -16.13 -8.2 -24.42l-3.6 -13.88 21.25 -14.9v-35.8L1308 235.03l3.6 -13.88c4 -15.24 9.32 -29.97 17.58 -43.77v-51.6h-31.66v267.08h31.66v-34.53c-4.13 -6.35 -6.74 -12.82 -9.5 -19.46h.05zM750.53 209.1v183.1h-32.18v-183.1h32.18zM449.48 133.16h28.02c3.13 0 5.64 .83 7.57 2.35 1.93 1.53 3.3 3.6 4.4 5.98l73.2 182.68c1.7 4.13 3.17 8.54 4.55 13.38 1.4 4.82 2.75 9.77 4.13 15 1.08 -5.18 2.26 -10.18 3.52 -15 1.27 -4.82 2.74 -9.28 4.43 -13.38l72.85 -182.74c.84 -2.04 2.28 -3.94 4.33 -5.7 2.05 -1.74 4.58 -2.6 7.6 -2.6h28.2l-105.57 259H555.1L449.48 133.17zm737.75 239.32c5.66 0 10.84 -.57 15.54 -1.72 4.7 -1.14 9.13 -2.77 13.3 -4.88 4.15 -2.1 8.12 -4.67 11.92 -7.68 3.8 -3 7.5 -6.45 11.1 -10.3v-37.78c-14.82 0 -27.4 .94 -37.77 2.82 -10.37 1.88 -18.8 4.33 -25.3 7.3 -6.52 3.02 -11.25 6.6 -14.2 10.72 -2.95 4.12 -4.43 8.73 -4.43 13.82 0 4.82 .83 9.08 2.35 12.52 1.56 3.58 3.7 6.34 6.33 8.64 2.65 2.2 5.78 3.86 9.36 4.9 3.65 1.1 7.53 1.65 11.8 1.64zM1770.9 351.5c-9.15 12.2 -22.23 18.27 -39.2 18.27 -8.7 0 -16.64 -1.63 -23.7 -4.88 -7.04 -3.26 -14 -8.93 -19.52 -16.82V259.5c6.9 -8.78 13.98 -15.6 21.88 -20.4 7.9 -4.83 17.12 -7.25 27.6 -7.25 7.35 0 13.9 1.24 19.7 3.86 5.77 2.5 10.73 6.48 14.58 12.03 3.98 5.5 7.03 12.52 9.1 21.05 2.1 8.54 3.16 18.87 3.16 30.7 .14 22.48 -4.47 39.83 -13.55 52.03h-.04zm-761.68 43.56h-.45c-10 0 -18.83 -1.66 -26.48 -4.97 -7.66 -3.33 -14.08 -8 -19.26 -14.02 -5.18 -6.03 -9.07 -13.32 -11.66 -21.87 -2.6 -8.55 -3.88 -18 -3.88 -28.37V209.06h32.12v116.8c0 13.9 3.17 24.63 9.64 32.16 6.47 7.53 16.02 11.43 28.9 11.43 9.4 0 18.27 -2.23 26.58 -6.7 8.3 -4.45 15.96 -10.66 22.96 -18.6V209.1h32.17v183.1h-19.16c-4.57 0 -7.46 -2.23 -8.67 -6.7l-2.53 -19.7c-7.95 8.8 -16.87 15.9 -26.75 21.25 -9.73 5.28 -20.85 7.96 -33.38 8h-.15zm482.14 -50.08h.02 -.02c42.53 -.03 77.23 -34.58 77.25 -77.22 0 -42.52 -34.65 -77.22 -77.22 -77.22 -42.58 0 -77.23 34.64 -77.23 77.22s34.64 77.22 77.2 77.22zM1947.3 262c-4.1 2.12 -8.77 3.27 -13.76 3.27 -.92 0 -1.84 -.06 -2.76 -.14v10.27c5.96 2.6 11.56 5.92 16.52 9.7V262zm-769.65 133.07c-7.1 0 -13.77 -1 -19.97 -3 -6.2 -2 -11.6 -4.98 -16.18 -8.97 -4.58 -4 -8.22 -9.04 -10.93 -15.15 -2.7 -6.1 -4.07 -13.33 -4.07 -21.67 0 -7.25 2 -14.23 5.96 -20.94 3.98 -6.7 10.4 -12.67 19.26 -17.87 8.85 -5.2 20.45 -9.46 34.8 -12.8 14.33 -3.3 31.86 -4.98 52.6 -4.98V275.3c0 -14.3 -3.06 -25.12 -9.14 -32.46 -6.1 -7.34 -15.1 -11 -27.02 -11 -7.84 0 -14.44 1 -19.8 2.98 -5.36 2 -10 4.2 -13.9 6.68 -3.93 2.48 -7.3 4.7 -10.13 6.75 -2.84 2 -5.64 2.98 -8.4 2.98 -2.18 0 -4.08 -.57 -5.7 -1.7 -1.63 -1.16 -2.93 -2.57 -3.9 -4.26l-5.77 -10.32c10.12 -9.76 21.02 -17.05 32.7 -21.87 11.7 -4.8 24.65 -7.22 38.88 -7.22 10.23 0 19.27 1.66 27.25 5.1 7.94 3.44 14.6 8.12 20.1 14.1 5.4 6.05 9.5 13.35 12.24 21.87 2.77 8.53 4.13 17.9 4.13 28.2v117.03h-14.2c-3.15 0 -5.68 -.48 -7.6 -1.45 -1.93 -.96 -3.2 -3 -3.8 -6.14l-3.6 -17c-4.83 4.34 -9.53 8.22 -14.1 11.66 -4.6 3.43 -9.4 6.32 -14.47 8.67 -5.06 2.35 -10.46 4.13 -16.18 5.33 -5.64 1.2 -11.88 1.8 -18.74 1.8h-.33zM757.75 151.6c0 3.14 -.63 6.06 -1.9 8.77 -1.26 2.7 -2.94 5.12 -5.05 7.3 -2.1 2.1 -4.55 3.76 -7.32 4.96 -2.77 1.2 -5.73 1.8 -8.86 1.8 -3.13 0 -6.05 -.6 -8.77 -1.8 -2.7 -1.2 -5.12 -2.86 -7.23 -4.97 -2.1 -2.1 -3.76 -4.5 -4.97 -7.23 -1.2 -2.7 -1.8 -5.63 -1.8 -8.76 0 -3.14 .6 -6.12 1.8 -8.95 1.2 -2.83 2.86 -5.3 4.97 -7.4 2.1 -2.12 4.52 -3.78 7.23 -4.98 2.72 -1.2 5.64 -1.8 8.77 -1.8s6.06 .54 8.8 1.8c2.78 1.24 5.24 2.9 7.3 4.95 2.1 2.06 3.86 4.54 5.1 7.4 1.3 2.77 1.9 5.8 1.9 8.9h.04zm862.6 130.03c1.02 -9.2 1.03 -18.56 .04 -27.77l-.6 -5.54 31.44 -22.03c-1.92 -7.4 -4.37 -14.67 -7.3 -21.74 -2.92 -7.06 -6.34 -13.94 -10.2 -20.5l-37.8 6.65 -3.5 -4.33c-5.83 -7.22 -12.44 -13.82 -19.66 -19.62l-4.36 -3.5 6.65 -37.76c-13.24 -7.8 -27.42 -13.66 -42.28 -17.53l-22 31.4 -5.56 -.62c-9.22 -1 -18.56 -1 -27.78 -.02l-5.54 .6 -22.02 -31.45c-7.38 1.92 -14.67 4.36 -21.73 7.3 -7.06 2.92 -13.94 6.34 -20.52 10.2l6.66 37.8 -4.32 3.5c-7.22 5.83 -13.82 12.44 -19.62 19.67l-3.5 4.4 -37.77 -6.65c-7.78 13.24 -13.65 27.42 -17.52 42.28l31.4 22 -.6 5.55c-1 9.22 -1 18.56 -.02 27.8l.6 5.55 -31.46 22.03c1.93 7.45 4.4 14.74 7.3 21.74 2.93 7.02 6.33 13.9 10.2 20.5l37.8 -6.65 3.5 4.4c5.8 7.16 12.4 13.77 19.68 19.62l4.36 3.5 -6.65 37.76c13.23 7.7 27.38 13.63 42.25 17.5l22 -31.4 5.55 .6c9.2 .97 18.6 .97 27.8 .04l5.55 -.6 22.03 31.45c7.38 -1.92 14.66 -4.36 21.73 -7.3 7.07 -2.92 13.95 -6.34 20.52 -10.2l-6.65 -37.8 4.33 -3.5c7.22 -5.83 13.82 -12.44 19.62 -19.66l3.5 -4.35 37.77 6.6c7.76 -13.23 13.63 -27.4 17.5 -42.27l-31.4 -22 .56 -5.65zM1930.8 121.66v69.77c5.85 2.34 11.43 5.1 16.52 8.32v-78.1c0 -38 -30.82 -68.83 -68.83 -68.83h-410.25c-32.35 0 -59.48 22.33 -66.85 52.4 6.12 -3.37 12.45 -6.44 18.9 -9.1 1 -.42 2 -.8 3 -1.2 9.14 -15.25 25.8 -25.57 44.95 -25.57h410.25c28.84 0 52.3 23.4 52.3 52.3z" fill="#fff"/></svg>